<svg width="32" height="32" viewBox="0 0 32 32" fill="none" xmlns="http://www.w3.org/2000/svg">
<g clip-path="url(#clip0_24_722)">
<path d="M2.89258 9.728V22.272C2.89258 23.0784 3.31498 23.808 4.01898 24.2176L14.8862 30.4896C15.5774 30.8864 16.435 30.8864 17.1262 30.4896L27.9934 24.2176C28.6846 23.8208 29.1198 23.0784 29.1198 22.272V9.728C29.1198 8.9216 28.6974 8.192 27.9934 7.7824L17.1262 1.5104C16.435 1.1136 15.5774 1.1136 14.8862 1.5104L4.01898 7.7824C3.32778 8.1792 2.90538 8.9216 2.90538 9.728H2.89258Z" fill="#213147"/>
<path d="M18.3676 18.432L16.8188 22.6816C16.7804 22.7968 16.7804 22.9248 16.8188 23.0528L19.4812 30.3616L22.566 28.5824L18.8668 18.432C18.7772 18.2016 18.4572 18.2016 18.3676 18.432Z" fill="#12AAFF"/>
<path d="M21.4782 11.2896C21.3886 11.0592 21.0686 11.0592 20.979 11.2896L19.4302 15.5392C19.3918 15.6544 19.3918 15.7824 19.4302 15.9104L23.795 27.8784L26.8798 26.0992L21.4782 11.3024V11.2896Z" fill="#12AAFF"/>
<path d="M15.9998 1.984C16.0766 1.984 16.1534 2.0096 16.2174 2.048L27.9678 8.832C28.1086 8.9088 28.1854 9.0624 28.1854 9.216V22.784C28.1854 22.9376 28.0958 23.0912 27.9678 23.168L16.2174 29.952C16.1534 29.9904 16.0766 30.016 15.9998 30.016C15.923 30.016 15.8462 29.9904 15.7822 29.952L4.03178 23.168C3.89098 23.0912 3.81418 22.9376 3.81418 22.784V9.2032C3.81418 9.0496 3.90378 8.896 4.03178 8.8192L15.7822 2.0352C15.8462 1.9968 15.923 1.9712 15.9998 1.9712V1.984ZM15.9998 0C15.5774 0 15.1678 0.1024 14.7838 0.32L3.03338 7.104C2.27818 7.5392 1.81738 8.3328 1.81738 9.2032V22.7712C1.81738 23.6416 2.27818 24.4352 3.03338 24.8704L14.7838 31.6544C15.155 31.872 15.5774 31.9744 15.9998 31.9744C16.4222 31.9744 16.8318 31.872 17.2158 31.6544L28.9662 24.8704C29.7214 24.4352 30.1822 23.6416 30.1822 22.7712V9.2032C30.1822 8.3328 29.7214 7.5392 28.9662 7.104L17.203 0.32C16.8318 0.1024 16.4094 0 15.987 0H15.9998Z" fill="#9DCCED"/>
<path d="M8.21729 27.8912L9.30529 24.9216L11.4813 26.7264L9.44609 28.5952L8.21729 27.8912Z" fill="#213147"/>
<path d="M15.0016 8.24321H12.0192C11.8016 8.24321 11.5968 8.38401 11.52 8.58881L5.13281 26.0992L8.21761 27.8784L15.2576 8.58881C15.3216 8.40961 15.1936 8.23041 15.0144 8.23041L15.0016 8.24321Z" fill="white"/>
<path d="M20.2239 8.24321H17.2415C17.0239 8.24321 16.8191 8.38401 16.7423 8.58881L9.44629 28.5824L12.5311 30.3616L20.4671 8.58881C20.5311 8.40961 20.4031 8.23041 20.2239 8.23041V8.24321Z" fill="white"/>
</g>
<defs>
<clipPath id="clip0_24_722">
<rect width="32" height="32" fill="white"/>
</clipPath>
</defs>
</svg>
