<svg width="21" height="23" viewBox="0 0 21 23" fill="none" xmlns="http://www.w3.org/2000/svg">
<path d="M1.68602 9.46201C1.4538 9.69416 1.26959 9.96979 1.14392 10.2731C1.01824 10.5765 0.953552 10.9016 0.953552 11.23C0.953552 11.5584 1.01824 11.8835 1.14392 12.1869C1.26959 12.4902 1.4538 12.7659 1.68602 12.998L4.51502 15.826C4.92116 16.2321 5.45475 16.4861 6.02608 16.545C6.59741 16.604 7.17163 16.4645 7.65216 16.1498C8.1327 15.8352 8.49025 15.3648 8.6647 14.8175C8.83914 14.2703 8.81983 13.6797 8.61002 13.145L9.40102 12.354L15.808 19.746C16.0593 20.0356 16.3675 20.2704 16.7134 20.4358C17.0594 20.6011 17.4357 20.6934 17.8189 20.707C18.2021 20.7206 18.584 20.6551 18.9407 20.5146C19.2975 20.3742 19.6216 20.1618 19.8927 19.8907C20.1638 19.6196 20.3762 19.2955 20.5167 18.9387C20.6571 18.5819 20.7226 18.2001 20.709 17.8169C20.6954 17.4337 20.6031 17.0574 20.4378 16.7114C20.2724 16.3655 20.0376 16.0573 19.748 15.806L12.356 9.39901L13.147 8.60901C13.6819 8.81933 14.2729 8.83895 14.8205 8.66456C15.3681 8.49017 15.8389 8.13243 16.1537 7.65157C16.4684 7.1707 16.6079 6.59607 16.5486 6.02442C16.4892 5.45277 16.2348 4.91901 15.828 4.51301L13 1.68401C12.5939 1.27787 12.0603 1.02396 11.489 0.964985C10.9176 0.906008 10.3434 1.04556 9.86287 1.36017C9.38233 1.67477 9.02478 2.14525 8.85034 2.69249C8.6759 3.23972 8.69521 3.83033 8.90502 4.36501L4.36802 8.90201C3.91499 8.72416 3.41989 8.68241 2.94347 8.78188C2.46705 8.88136 2.03003 9.11773 1.68602 9.46201Z" fill="#28994E"/>
</svg>
