<svg width="23" height="23" viewBox="0 0 23 23" fill="none" xmlns="http://www.w3.org/2000/svg">
<path d="M18.833 6.91667V5.08333C18.833 4.07225 18.0108 3.25 16.9997 3.25H5.08301C3.56684 3.25 2.33301 4.48383 2.33301 6V17C2.33301 19.0176 3.97751 19.75 5.08301 19.75H18.833C19.8441 19.75 20.6663 18.9278 20.6663 17.9167V8.75C20.6663 7.73892 19.8441 6.91667 18.833 6.91667ZM16.9997 15.1667H15.1663V11.5H16.9997V15.1667ZM5.08301 6.91667C4.84698 6.90611 4.62413 6.80492 4.46084 6.63417C4.29756 6.46341 4.20643 6.23626 4.20643 6C4.20643 5.76374 4.29756 5.53659 4.46084 5.36583C4.62413 5.19508 4.84698 5.09389 5.08301 5.08333H16.9997V6.91667H5.08301Z" fill="white"/>
</svg>
