<svg width="21" height="23" viewBox="0 0 21 23" fill="none" xmlns="http://www.w3.org/2000/svg">
<path fill-rule="evenodd" clip-rule="evenodd" d="M1.68602 9.46198C1.4538 9.69413 1.26959 9.96976 1.14392 10.2731C1.01824 10.5765 0.953552 10.9016 0.953552 11.23C0.953552 11.5583 1.01824 11.8835 1.14392 12.1868C1.26959 12.4902 1.4538 12.7658 1.68602 12.998L4.51502 15.826C4.88607 16.1967 5.36433 16.4413 5.88209 16.5252C6.39985 16.6091 6.93088 16.528 7.40002 16.2935C7.86916 16.0589 8.25264 15.6827 8.49617 15.2182C8.73971 14.7536 8.83096 14.2243 8.75702 13.705L9.73002 12.732L15.808 19.746C16.0593 20.0356 16.3675 20.2704 16.7134 20.4357C17.0594 20.6011 17.4357 20.6934 17.8189 20.707C18.2021 20.7205 18.584 20.6551 18.9407 20.5146C19.2975 20.3742 19.6216 20.1618 19.8927 19.8907C20.1638 19.6195 20.3762 19.2955 20.5167 18.9387C20.6571 18.5819 20.7226 18.2 20.709 17.8168C20.6954 17.4337 20.6031 17.0574 20.4378 16.7114C20.2724 16.3655 20.0376 16.0572 19.748 15.806L12.735 9.72698L13.707 8.75498C14.2265 8.8292 14.7562 8.73808 15.221 8.49452C15.6858 8.25096 16.0622 7.86731 16.2968 7.39793C16.5314 6.92856 16.6124 6.39725 16.5283 5.87928C16.4441 5.36132 16.1992 4.88296 15.828 4.51198L13 1.68498C12.629 1.31372 12.1505 1.06866 11.6324 0.984535C11.1143 0.900405 10.5829 0.981474 10.1135 1.21625C9.64403 1.45103 9.26039 1.8276 9.01693 2.29259C8.77347 2.75759 8.68253 3.28741 8.75702 3.80698L3.80702 8.75598C3.42301 8.70097 3.03147 8.73623 2.66347 8.85896C2.29547 8.98168 1.96114 9.18849 1.68702 9.46298M11.94 7.69498L7.69802 11.937L5.57602 9.81598L9.81902 5.57298L11.94 7.69498ZM3.10002 11.584C3.05353 11.5376 3.01664 11.4824 2.99146 11.4218C2.96627 11.3611 2.95329 11.296 2.95324 11.2303C2.95319 11.1646 2.96609 11.0996 2.99119 11.0389C3.01628 10.9781 3.0531 10.923 3.09952 10.8765C3.14594 10.83 3.20107 10.7931 3.26174 10.7679C3.32242 10.7427 3.38747 10.7297 3.45316 10.7297C3.51886 10.7297 3.58393 10.7425 3.64464 10.7676C3.70535 10.7927 3.76053 10.8296 3.80702 10.876L6.63602 13.705C6.68377 13.7511 6.72186 13.8063 6.74807 13.8673C6.77427 13.9283 6.78807 13.9939 6.78864 14.0603C6.78922 14.1267 6.77657 14.1925 6.75143 14.254C6.72629 14.3154 6.68916 14.3712 6.64222 14.4182C6.59527 14.4651 6.53944 14.5022 6.47799 14.5274C6.41655 14.5525 6.35071 14.5652 6.28432 14.5646C6.21793 14.564 6.15232 14.5502 6.09132 14.524C6.03031 14.4978 5.97514 14.4597 5.92902 14.412L3.10002 11.584ZM10.878 3.80498C10.8303 3.75885 10.7922 3.70368 10.766 3.64268C10.7398 3.58168 10.726 3.51607 10.7254 3.44968C10.7248 3.38329 10.7375 3.31745 10.7626 3.256C10.7877 3.19455 10.8249 3.13873 10.8718 3.09178C10.9188 3.04483 10.9746 3.00771 11.036 2.98257C11.0975 2.95743 11.1633 2.94478 11.2297 2.94535C11.2961 2.94593 11.3617 2.95972 11.4227 2.98593C11.4837 3.01213 11.5389 3.05022 11.585 3.09798L14.414 5.92698C14.4618 5.9731 14.4999 6.02827 14.5261 6.08928C14.5523 6.15028 14.5661 6.21589 14.5666 6.28228C14.5672 6.34867 14.5546 6.41451 14.5294 6.47596C14.5043 6.5374 14.4672 6.59323 14.4202 6.64018C14.3733 6.68712 14.3174 6.72425 14.256 6.74939C14.1945 6.77453 14.1287 6.78718 14.0623 6.7866C13.9959 6.78603 13.9303 6.77223 13.8693 6.74603C13.8083 6.71982 13.7531 6.68173 13.707 6.63398L10.878 3.80498ZM17.32 18.436L11.312 11.504L11.506 11.309L18.439 17.317C18.5189 17.389 18.5832 17.4766 18.6282 17.5743C18.6731 17.672 18.6977 17.7779 18.7005 17.8854C18.7032 17.9929 18.6841 18.0999 18.6442 18.1998C18.6043 18.2996 18.5445 18.3904 18.4685 18.4664C18.3924 18.5425 18.3017 18.6023 18.2018 18.6422C18.1019 18.682 17.9949 18.7012 17.8874 18.6984C17.7799 18.6957 17.6741 18.6711 17.5763 18.6261C17.4786 18.5812 17.3911 18.5168 17.319 18.437" fill="#F3BA2F"/>
</svg>
