<svg width="30" height="30" viewBox="0 0 30 30" fill="none" xmlns="http://www.w3.org/2000/svg">
<path d="M24.0875 6.66256C22.425 5.88756 20.625 5.32506 18.75 5.00006C18.7336 4.99953 18.7172 5.00262 18.7021 5.0091C18.687 5.01558 18.6735 5.02529 18.6625 5.03756C18.4375 5.45006 18.175 5.98756 18 6.40006C16.0112 6.10006 13.9887 6.10006 12 6.40006C11.825 5.97506 11.5625 5.45006 11.325 5.03756C11.3125 5.01256 11.275 5.00006 11.2375 5.00006C9.36249 5.32506 7.57499 5.88756 5.89999 6.66256C5.88749 6.66256 5.87499 6.67506 5.86249 6.68756C2.46249 11.7751 1.52499 16.7251 1.98749 21.6251C1.98749 21.6501 1.99999 21.6751 2.02499 21.6876C4.27499 23.3376 6.43749 24.3376 8.57499 25.0001C8.61249 25.0126 8.64999 25.0001 8.66249 24.9751C9.16249 24.2876 9.61249 23.5626 9.99999 22.8001C10.025 22.7501 9.99999 22.7001 9.94999 22.6876C9.23749 22.4126 8.56249 22.0876 7.89999 21.7126C7.84999 21.6876 7.84999 21.6126 7.88749 21.5751C8.02499 21.4751 8.16249 21.3626 8.29999 21.2626C8.32499 21.2376 8.36249 21.2376 8.38749 21.2501C12.6875 23.2126 17.325 23.2126 21.575 21.2501C21.6 21.2376 21.6375 21.2376 21.6625 21.2626C21.8 21.3751 21.9375 21.4751 22.075 21.5876C22.125 21.6251 22.125 21.7001 22.0625 21.7251C21.4125 22.1126 20.725 22.4251 20.0125 22.7001C19.9625 22.7126 19.95 22.7751 19.9625 22.8126C20.3625 23.5751 20.8125 24.3001 21.3 24.9876C21.3375 25.0001 21.375 25.0126 21.4125 25.0001C23.5625 24.3376 25.725 23.3376 27.975 21.6876C28 21.6751 28.0125 21.6501 28.0125 21.6251C28.5625 15.9626 27.1 11.0501 24.1375 6.68756C24.125 6.67506 24.1125 6.66256 24.0875 6.66256ZM10.65 18.6376C9.36249 18.6376 8.28749 17.4501 8.28749 15.9876C8.28749 14.5251 9.33749 13.3376 10.65 13.3376C11.975 13.3376 13.025 14.5376 13.0125 15.9876C13.0125 17.4501 11.9625 18.6376 10.65 18.6376ZM19.3625 18.6376C18.075 18.6376 17 17.4501 17 15.9876C17 14.5251 18.05 13.3376 19.3625 13.3376C20.6875 13.3376 21.7375 14.5376 21.725 15.9876C21.725 17.4501 20.6875 18.6376 19.3625 18.6376Z" fill="white" fill-opacity="0.64"/>
</svg>
