<svg width="200" height="57" viewBox="0 0 200 57" fill="none" xmlns="http://www.w3.org/2000/svg">
<path d="M85.3363 43.4264C82.0346 43.4264 79.0025 42.6601 76.2397 41.1273C73.477 39.5948 71.2873 37.479 69.6699 34.7801C68.0528 32.048 67.2441 28.9657 67.2441 25.534C67.2441 22.1356 68.0528 19.0868 69.6699 16.388C71.2873 13.6558 73.477 11.5234 76.2397 9.99072C79.0025 8.45803 82.0346 7.69171 85.3363 7.69171C88.6717 7.69171 91.7039 8.45803 94.4332 9.99072C97.1956 11.5234 99.3688 13.6558 100.952 16.388C102.569 19.0868 103.378 22.1356 103.378 25.534C103.378 28.9657 102.569 32.048 100.952 34.7801C99.3688 37.479 97.1956 39.5948 94.4332 41.1273C91.6705 42.6601 88.6383 43.4264 85.3363 43.4264ZM85.3363 37.1791C87.4588 37.1791 89.3288 36.7124 90.9458 35.7797C92.5632 34.8135 93.8268 33.4471 94.7364 31.6812C95.6461 29.9154 96.1009 27.8662 96.1009 25.534C96.1009 23.2018 95.6461 21.1691 94.7364 19.4367C93.8268 17.6707 92.5632 16.3213 90.9458 15.3884C89.3288 14.4554 87.4588 13.989 85.3363 13.989C83.2138 13.989 81.3273 14.4554 79.6764 15.3884C78.059 16.3213 76.7955 17.6707 75.8858 19.4367C74.9762 21.1691 74.5214 23.2018 74.5214 25.534C74.5214 27.8662 74.9762 29.9154 75.8858 31.6812C76.7955 33.4471 78.059 34.8135 79.6764 35.7797C81.3273 36.7124 83.2138 37.1791 85.3363 37.1791Z" fill="white"/>
<path d="M115.717 19.3868C116.627 18.1207 117.873 17.0711 119.457 16.2381C121.074 15.3719 122.91 14.9387 124.965 14.9387C127.357 14.9387 129.514 15.5218 131.434 16.6879C133.388 17.8541 134.921 19.52 136.033 21.6859C137.178 23.8182 137.751 26.3003 137.751 29.1327C137.751 31.9647 137.178 34.4803 136.033 36.6794C134.921 38.8452 133.388 40.5276 131.434 41.7271C129.514 42.9267 127.357 43.5265 124.965 43.5265C122.91 43.5265 121.091 43.1101 119.507 42.2769C117.957 41.4438 116.694 40.3946 115.717 39.1281V56.2708H108.642V15.3885H115.717V19.3868ZM130.524 29.1327C130.524 27.4668 130.17 26.0339 129.463 24.8344C128.789 23.6018 127.879 22.6687 126.734 22.0358C125.622 21.4026 124.409 21.0862 123.095 21.0862C121.815 21.0862 120.602 21.4191 119.457 22.0858C118.345 22.7186 117.435 23.6517 116.728 24.8843C116.054 26.1173 115.717 27.5668 115.717 29.2327C115.717 30.8986 116.054 32.348 116.728 33.5806C117.435 34.8136 118.345 35.7629 119.457 36.4295C120.602 37.0624 121.815 37.3792 123.095 37.3792C124.409 37.3792 125.622 37.0459 126.734 36.3796C127.879 35.7129 128.789 34.7636 129.463 33.5307C130.17 32.298 130.524 30.8317 130.524 29.1327Z" fill="white"/>
<path d="M151.13 21.1359V34.5301C151.13 35.4632 151.349 36.146 151.787 36.5793C152.258 36.9791 153.033 37.1791 154.112 37.1791H157.397V43.0764H152.949C146.986 43.0764 144.004 40.211 144.004 34.4801V21.1359H140.669V15.3883H144.004V8.54126H151.13V15.3883H157.397V21.1359H151.13Z" fill="white"/>
<path d="M169.561 15.3884V43.0765H162.485V15.3884H169.561Z" fill="white"/>
<path d="M192.015 43.0765L186.254 34.4802L181.15 43.0765H173.569L182.716 29.1826L173.468 15.3884H181.453L187.163 23.9346L192.318 15.3884H199.899L190.701 29.1826L200 43.0765H192.015Z" fill="white"/>
<path d="M165.589 11.0089C164.617 11.0089 163.745 10.7856 162.972 10.3389C162.221 9.89234 161.625 9.28938 161.183 8.53015C160.742 7.77088 160.521 6.91114 160.521 5.95092C160.521 5.01301 160.742 4.16444 161.183 3.40517C161.625 2.62359 162.221 2.02066 162.972 1.59638C163.745 1.14975 164.617 0.926453 165.589 0.926453C166.539 0.926453 167.389 1.14975 168.14 1.59638C168.891 2.02066 169.488 2.61242 169.929 3.37169C170.371 4.13092 170.592 4.99066 170.592 5.95092C170.592 6.91114 170.371 7.78205 169.929 8.56363C169.488 9.3229 168.891 9.92582 168.14 10.3725C167.389 10.7967 166.539 11.0089 165.589 11.0089ZM165.589 8.93209C166.407 8.93209 167.069 8.65297 167.577 8.09469C168.107 7.53641 168.372 6.82183 168.372 5.95092C168.372 5.10235 168.107 4.3989 167.577 3.84063C167.069 3.28235 166.407 3.00323 165.589 3.00323C164.75 3.00323 164.065 3.28235 163.535 3.84063C163.005 4.3989 162.74 5.10235 162.74 5.95092C162.74 6.82183 163.005 7.53641 163.535 8.09469C164.065 8.65297 164.75 8.93209 165.589 8.93209Z" fill="#FFD718"/>
<path fill-rule="evenodd" clip-rule="evenodd" d="M9.3515 25.5784C9.3515 34.1652 15.8411 41.1262 23.8464 41.1262V51.1568C10.6764 51.1568 0 39.705 0 25.5784C0 11.4519 10.6764 0 23.8464 0V10.0308C15.8411 10.0308 9.3515 16.9917 9.3515 25.5784Z" fill="url(#paint0_linear_23_2703)"/>
<path fill-rule="evenodd" clip-rule="evenodd" d="M29.8081 0C29.3376 0 28.9563 0.432139 28.9563 0.965212V11.3414C28.9563 11.8745 29.3376 12.3066 29.8081 12.3066C30.2783 12.3066 30.6596 11.8745 30.6596 11.3414V0.965212C30.6596 0.432139 30.2783 0 29.8081 0ZM29.8081 39.0917C29.3376 39.0917 28.9563 39.5239 28.9563 40.0568V50.1917C28.9563 50.7248 29.3376 51.1568 29.8081 51.1568C30.2783 51.1568 30.6596 50.7248 30.6596 50.1917V40.0568C30.6596 39.5239 30.2783 39.0917 29.8081 39.0917Z" fill="#FFD718"/>
<path fill-rule="evenodd" clip-rule="evenodd" d="M50.2477 20.4627C49.7772 20.4627 49.396 20.8738 49.396 21.3809V31.4812C49.396 31.9884 49.7772 32.3993 50.2477 32.3993C50.718 32.3993 51.0993 31.9884 51.0993 31.4812V21.3809C51.0993 20.8738 50.718 20.4627 50.2477 20.4627Z" fill="#FFD718"/>
<path fill-rule="evenodd" clip-rule="evenodd" d="M45.1378 10.2315C44.6675 10.2315 44.2861 10.6609 44.2861 11.1907V39.9665C44.2861 40.4961 44.6675 40.9256 45.1378 40.9256C45.6083 40.9256 45.9894 40.4961 45.9894 39.9665V11.1907C45.9894 10.6609 45.6083 10.2315 45.1378 10.2315Z" fill="#FFD718"/>
<path fill-rule="evenodd" clip-rule="evenodd" d="M40.0278 5.1156C39.5573 5.1156 39.1762 5.5494 39.1762 6.08449V18.6799C39.1762 19.215 39.5573 19.6488 40.0278 19.6488C40.4981 19.6488 40.8795 19.215 40.8795 18.6799V6.08449C40.8795 5.5494 40.4981 5.1156 40.0278 5.1156ZM40.0278 31.7599C39.5573 31.7599 39.1762 32.1935 39.1762 32.7287V46.7775C39.1762 47.3124 39.5573 47.7463 40.0278 47.7463C40.4981 47.7463 40.8795 47.3124 40.8795 46.7775V32.7287C40.8795 32.1935 40.4981 31.7599 40.0278 31.7599Z" fill="#FFD718"/>
<path fill-rule="evenodd" clip-rule="evenodd" d="M34.918 1.7052C34.4476 1.7052 34.0662 2.13273 34.0662 2.66011V13.403C34.0662 13.9304 34.4476 14.358 34.918 14.358C35.3882 14.358 35.7695 13.9304 35.7695 13.403V2.66011C35.7695 2.13273 35.3882 1.7052 34.918 1.7052ZM34.918 36.7988C34.4476 36.7988 34.0662 37.2262 34.0662 37.7537V48.4967C34.0662 49.024 34.4476 49.4516 34.918 49.4516C35.3882 49.4516 35.7695 49.024 35.7695 48.4967V37.7537C35.7695 37.2262 35.3882 36.7988 34.918 36.7988Z" fill="#FFD718"/>
<defs>
<linearGradient id="paint0_linear_23_2703" x1="23.8464" y1="17.1741" x2="-0.0488265" y2="17.3153" gradientUnits="userSpaceOnUse">
<stop stop-color="#6131FA"/>
<stop offset="1" stop-color="#451EC1"/>
</linearGradient>
</defs>
</svg>
