<svg width="20" height="17" viewBox="0 0 20 17" fill="none" xmlns="http://www.w3.org/2000/svg">
<path d="M17.3333 3.91667V2.08333C17.3333 1.07225 16.5111 0.25 15.5 0.25H3.58331C2.06715 0.25 0.833313 1.48383 0.833313 3V14C0.833313 16.0176 2.47781 16.75 3.58331 16.75H17.3333C18.3444 16.75 19.1666 15.9278 19.1666 14.9167V5.75C19.1666 4.73892 18.3444 3.91667 17.3333 3.91667ZM15.5 12.1667H13.6666V8.5H15.5V12.1667ZM3.58331 3.91667C3.34729 3.90611 3.12443 3.80492 2.96115 3.63417C2.79786 3.46341 2.70673 3.23626 2.70673 3C2.70673 2.76374 2.79786 2.53659 2.96115 2.36583C3.12443 2.19508 3.34729 2.09389 3.58331 2.08333H15.5V3.91667H3.58331Z" fill="white"/>
</svg>
