<svg width="30" height="31" viewBox="0 0 30 31" fill="none" xmlns="http://www.w3.org/2000/svg">
<path fill-rule="evenodd" clip-rule="evenodd" d="M5.49019 15.0168C5.49019 20.0581 9.30016 24.1448 14 24.1448V30.0337C6.26801 30.0337 0 23.3105 0 15.0168C0 6.7233 6.26801 0 14 0V5.88899C9.30016 5.88899 5.49019 9.97568 5.49019 15.0168Z" fill="url(#paint0_linear_26_934)"/>
<path fill-rule="evenodd" clip-rule="evenodd" d="M17.5001 0C17.2239 0 17 0.253705 17 0.566668V6.65843C17 6.9714 17.2239 7.22511 17.5001 7.22511C17.7761 7.22511 18 6.9714 18 6.65843V0.566668C18 0.253705 17.7761 0 17.5001 0ZM17.5001 22.9504C17.2239 22.9504 17 23.2041 17 23.517V29.4671C17 29.7801 17.2239 30.0337 17.5001 30.0337C17.7761 30.0337 18 29.7801 18 29.4671V23.517C18 23.2041 17.7761 22.9504 17.5001 22.9504Z" fill="#FFD718"/>
<path fill-rule="evenodd" clip-rule="evenodd" d="M29.5 12.0135C29.2238 12.0135 29 12.2548 29 12.5526V18.4823C29 18.7801 29.2238 19.0214 29.5 19.0214C29.7761 19.0214 30 18.7801 30 18.4823V12.5526C30 12.2548 29.7761 12.0135 29.5 12.0135Z" fill="#FFD718"/>
<path fill-rule="evenodd" clip-rule="evenodd" d="M26.5 6.00674C26.2239 6.00674 26 6.25886 26 6.56987V23.4639C26 23.7748 26.2239 24.027 26.5 24.027C26.7762 24.027 27 23.7748 27 23.4639V6.56987C27 6.25886 26.7762 6.00674 26.5 6.00674Z" fill="#FFD718"/>
<path fill-rule="evenodd" clip-rule="evenodd" d="M23.5 3.00337C23.2238 3.00337 23 3.25805 23 3.5722V10.9669C23 11.281 23.2238 11.5357 23.5 11.5357C23.7761 11.5357 24 11.281 24 10.9669V3.5722C24 3.25805 23.7761 3.00337 23.5 3.00337ZM23.5 18.646C23.2238 18.646 23 18.9006 23 19.2148V27.4627C23 27.7768 23.2238 28.0315 23.5 28.0315C23.7761 28.0315 24 27.7768 24 27.4627V19.2148C24 18.9006 23.7761 18.646 23.5 18.646Z" fill="#FFD718"/>
<path fill-rule="evenodd" clip-rule="evenodd" d="M20.5001 1.00113C20.2239 1.00113 20 1.25213 20 1.56175V7.86884C20 8.17846 20.2239 8.42946 20.5001 8.42946C20.7761 8.42946 21 8.17846 21 7.86884V1.56175C21 1.25213 20.7761 1.00113 20.5001 1.00113ZM20.5001 21.6043C20.2239 21.6043 20 21.8552 20 22.1649V28.472C20 28.7816 20.2239 29.0326 20.5001 29.0326C20.7761 29.0326 21 28.7816 21 28.472V22.1649C21 21.8552 20.7761 21.6043 20.5001 21.6043Z" fill="#FFD718"/>
<defs>
<linearGradient id="paint0_linear_26_934" x1="14" y1="10.0828" x2="-0.0286656" y2="10.1657" gradientUnits="userSpaceOnUse">
<stop stop-color="#6131FA"/>
<stop offset="1" stop-color="#451EC1"/>
</linearGradient>
</defs>
</svg>
