<svg width="18" height="18" viewBox="0 0 18 18" fill="none" xmlns="http://www.w3.org/2000/svg">
<path d="M16.4849 17.154L10.2229 10.892C9.72294 11.318 9.14794 11.6477 8.49794 11.881C7.84794 12.1143 7.1946 12.231 6.53794 12.231C4.9366 12.231 3.58127 11.6767 2.47194 10.568C1.3626 9.45933 0.807938 8.10433 0.807938 6.503C0.807938 4.90167 1.36194 3.546 2.46994 2.436C3.57794 1.326 4.9326 0.770333 6.53394 0.769C8.13527 0.767666 9.49127 1.32233 10.6019 2.433C11.7126 3.54367 12.2679 4.89933 12.2679 6.5C12.2679 7.19467 12.1449 7.867 11.8989 8.517C11.6529 9.167 11.3296 9.723 10.9289 10.185L17.1909 16.446L16.4849 17.154ZM6.53894 11.23C7.8656 11.23 8.9856 10.7733 9.89894 9.86C10.8123 8.94667 11.2689 7.82633 11.2689 6.499C11.2689 5.17167 10.8123 4.05167 9.89894 3.139C8.9856 2.22633 7.8656 1.76967 6.53894 1.769C5.21227 1.76833 4.09194 2.225 3.17794 3.139C2.26394 4.053 1.80727 5.173 1.80794 6.499C1.8086 7.825 2.26527 8.945 3.17794 9.859C4.0906 10.773 5.2106 11.2297 6.53794 11.229" fill="#F8F8F8" fill-opacity="0.64"/>
</svg>
